<?xml version="1.0" encoding="UTF-8" standalone="no"?>
<!DOCTYPE svg PUBLIC "-//W3C//DTD SVG 1.1//EN" "http://www.w3.org/Graphics/SVG/1.1/DTD/svg11.dtd">
<svg version="1.1" xmlns="http://www.w3.org/2000/svg" xmlns:xlink="http://www.w3.org/1999/xlink" preserveAspectRatio="xMidYMid meet" viewBox="-1 -1 148.99999999999994 54.14" width="145" height="50.14"><defs><path d="M37.94 20.33C37.72 24.38 36.28 27.69 33.51 31.57C30.9 35.23 21 47.55 20.58 48.08C20.58 48.08 20.58 48.08 20.58 48.08L18.95 50.14C17.97 48.9 17.43 48.21 17.32 48.08C17.24 47.98 16.86 47.5 16.26 46.75C16.26 46.75 16.26 46.75 16.26 46.75C17.87 44.7 18.77 43.57 18.95 43.34C19.77 42.3 20.83 40.96 21.97 39.5C21.97 39.5 21.97 39.5 21.97 39.5C25.03 35.62 28.77 30.95 30.19 28.97C32.42 25.88 33.53 23.4 33.74 20.33C33.74 20.33 33.74 20.33 33.74 20.33C35.98 20.33 37.38 20.33 37.94 20.33ZM31.17 19.87C31.17 20.07 31.16 20.28 31.15 20.48C30.99 23.73 29.48 25.85 28.36 27.47C27.61 28.55 22.59 34.67 19.57 38.42C19.57 38.42 19.57 38.42 19.57 38.42L19.57 38.42C18.17 40.16 17.39 41.13 17.23 41.32C17.23 41.32 17.23 41.33 17.23 41.33C17.23 41.33 17.23 41.33 17.23 41.33C15.59 43.36 14.68 44.49 14.5 44.72C11.2 40.65 6.26 34.62 4.51 32.25C1.72 28.46 0.23 25.1 0 21.07C0 21.07 0 21.07 0 21.07C2.57 21.07 3.99 21.07 4.28 21.07C4.5 24.13 5.67 26.67 7.89 29.67C8.98 31.13 11.39 34.09 13.83 37.11C13.9 37.19 14.43 37.85 14.49 37.94C14.49 37.94 23.96 26.3 25.12 24.7C26.27 23.1 26.8 21.95 26.89 20.26C26.9 20.13 26.9 20 26.9 19.87C26.9 15.73 23.51 12.37 19.35 12.37C15.18 12.37 11.79 15.73 11.79 19.87C11.79 20 11.8 20.13 11.8 20.26C11.95 23.08 13.45 25.15 16.1 26.64C16.1 26.64 16.1 26.64 16.1 26.64L16.12 26.65L18.43 27.77C16.85 29.74 15.97 30.84 15.79 31.06C13.69 30.4 11.84 29.17 10.42 27.55C10.42 27.55 10.42 27.55 10.42 27.55L10.41 27.56C10.37 27.5 10.34 27.47 10.34 27.47C9.13 26.06 7.71 23.73 7.54 20.48C7.53 20.28 7.53 20.07 7.53 19.87C7.53 13.4 12.83 8.13 19.35 8.13C25.87 8.13 31.17 13.4 31.17 19.87ZM115.22 18.57C116.83 19.21 118.14 20.11 119.09 21.23C119.09 21.23 119.09 21.23 119.09 21.23L119.25 21.42L114.91 25.15C114.81 25.01 114.75 24.94 114.74 24.92C114.32 24.33 113.67 23.83 112.82 23.43C111.96 23.02 111.07 22.82 110.19 22.82C109.18 22.82 108.28 23.02 107.52 23.42C106.75 23.82 106.11 24.36 105.61 25.02C105.09 25.69 104.71 26.45 104.47 27.27C104.22 28.1 104.09 28.96 104.09 29.81C104.09 30.67 104.23 31.52 104.49 32.35C104.75 33.18 105.15 33.94 105.67 34.6C106.2 35.26 106.86 35.8 107.64 36.2C108.41 36.6 109.34 36.81 110.38 36.81C111.25 36.81 112.12 36.64 112.98 36.31C113.84 35.98 114.53 35.5 115.05 34.88C115.05 34.88 115.05 34.88 115.05 34.88L115.22 34.66L119.21 38.61C119.11 38.71 119.05 38.77 119.04 38.78C118.05 39.81 116.78 40.61 115.26 41.17C113.74 41.73 112.09 42.01 110.33 42.01C108.61 42.01 106.95 41.73 105.41 41.2C103.86 40.65 102.49 39.85 101.33 38.79C100.17 37.73 99.24 36.44 98.58 34.95C97.91 33.45 97.57 31.72 97.57 29.81C97.57 27.97 97.91 26.27 98.58 24.77C99.24 23.28 100.16 21.98 101.31 20.93C102.45 19.88 103.79 19.05 105.31 18.48C106.83 17.9 108.47 17.62 110.19 17.62C111.92 17.62 113.61 17.94 115.22 18.57ZM137.15 18.48C138.72 19.06 140.1 19.88 141.25 20.93C142.39 21.98 143.32 23.27 143.99 24.75C144.66 26.23 145 27.9 145 29.72C145 31.53 144.66 33.22 143.99 34.71C143.32 36.21 142.39 37.51 141.25 38.58C140.1 39.65 138.72 40.49 137.15 41.1C135.58 41.7 133.89 42.01 132.13 42.01C130.37 42.01 128.67 41.7 127.1 41.1C125.53 40.49 124.15 39.64 123.01 38.58C121.85 37.5 120.93 36.2 120.27 34.71C119.6 33.22 119.25 31.53 119.25 29.72C119.25 27.9 119.6 26.23 120.27 24.75C120.93 23.28 121.85 21.99 123.01 20.93C124.16 19.88 125.53 19.06 127.1 18.48C128.68 17.91 130.37 17.62 132.13 17.62C133.89 17.62 135.58 17.91 137.15 18.48ZM96.55 36C97.23 36.52 97.57 37.16 97.57 37.91C97.57 38.66 97.23 39.31 96.57 39.85C95.91 40.38 95.11 40.65 94.18 40.65C93.73 40.65 93.3 40.58 92.89 40.44C92.49 40.31 92.12 40.12 91.82 39.88C91.5 39.65 91.25 39.36 91.07 39.04C90.89 38.71 90.79 38.35 90.79 37.98C90.79 37.23 91.13 36.58 91.79 36.04C92.45 35.51 93.26 35.23 94.18 35.23C95.08 35.23 95.88 35.49 96.55 36ZM63.48 10.28C64.89 10.82 66.13 11.56 67.16 12.51C68.2 13.45 69.02 14.58 69.6 15.86C70.17 17.13 70.47 18.53 70.47 20C70.47 20.86 70.39 21.68 70.24 22.43C70.1 23.19 69.88 23.93 69.6 24.63C69.32 25.33 68.98 26.05 68.58 26.75C68.19 27.45 67.74 28.2 67.24 28.96C67.24 28.96 67.24 28.96 67.24 28.96L59.45 40.65L52.48 40.65C57.4 33.76 60.14 29.93 60.68 29.16C62.69 26.35 64.65 23.32 64.65 19.87C64.65 19.12 64.52 18.39 64.25 17.72C63.99 17.04 63.6 16.44 63.1 15.91C62.61 15.39 62 14.97 61.3 14.66C60.61 14.35 59.82 14.19 58.97 14.19C57.27 14.19 55.89 14.73 54.86 15.79C53.81 16.85 53.29 18.25 53.29 19.96C53.29 20.77 53.42 21.53 53.69 22.22C53.95 22.9 54.33 23.48 54.83 23.97C57.17 26.13 59.26 26.69 59.28 26.69C59.28 26.69 59.28 26.69 59.28 26.69L59.61 26.78L56.93 30.77C56.83 30.75 56.78 30.74 56.76 30.74C55.09 30.39 52.98 29.33 51.26 27.95C50.92 27.69 50.63 27.45 50.38 27.21C50.14 26.98 49.9 26.72 49.65 26.41C49.65 26.41 49.65 26.41 49.65 26.41L49.13 25.81C49.16 25.81 49.19 25.82 49.19 25.82C48.8 25.27 48.48 24.69 48.21 24.08C47.69 22.9 47.43 21.59 47.43 20.21C47.43 18.6 47.73 17.12 48.32 15.8C48.92 14.48 49.73 13.34 50.76 12.4C51.78 11.47 53.01 10.74 54.42 10.24C55.82 9.74 57.34 9.49 58.93 9.49C60.54 9.49 62.08 9.75 63.48 10.28ZM87.88 10.28C89.28 10.82 90.52 11.56 91.56 12.51C92.59 13.45 93.41 14.58 93.99 15.86C94.56 17.13 94.86 18.52 94.86 20C94.86 20.86 94.78 21.68 94.64 22.43C94.49 23.19 94.28 23.93 93.99 24.63C93.71 25.33 93.37 26.05 92.98 26.75C92.59 27.45 92.13 28.2 91.64 28.96C91.64 28.96 91.64 28.96 91.64 28.96L83.85 40.65L76.87 40.65C81.79 33.76 84.53 29.93 85.08 29.16C87.08 26.35 89.04 23.32 89.04 19.87C89.04 19.12 88.91 18.39 88.65 17.71C88.38 17.04 88 16.44 87.5 15.91C87 15.39 86.4 14.97 85.7 14.66C85.01 14.35 84.22 14.19 83.36 14.19C81.67 14.19 80.29 14.73 79.25 15.79C78.21 16.85 77.68 18.25 77.68 19.96C77.68 20.76 77.82 21.53 78.08 22.22C78.34 22.9 78.72 23.48 79.22 23.97C81.56 26.13 83.66 26.69 83.67 26.69C83.67 26.69 83.67 26.69 83.67 26.69L84.01 26.78L81.33 30.77C81.23 30.75 81.17 30.74 81.16 30.74C79.48 30.39 77.37 29.33 75.65 27.95C75.31 27.69 75.02 27.44 74.77 27.2C74.53 26.98 74.29 26.72 74.04 26.41C74.04 26.41 74.04 26.41 74.04 26.41L73.52 25.81C73.56 25.81 73.58 25.82 73.59 25.82C73.19 25.27 72.87 24.69 72.6 24.08C72.09 22.9 71.82 21.59 71.82 20.21C71.82 18.6 72.12 17.12 72.71 15.8C73.31 14.48 74.13 13.33 75.15 12.4C76.17 11.47 77.4 10.74 78.81 10.24C80.21 9.74 81.73 9.49 83.32 9.49C84.94 9.49 86.47 9.75 87.88 10.28ZM129.41 23.62C128.66 24.01 128.02 24.53 127.53 25.16C127.03 25.8 126.66 26.52 126.4 27.33C126.16 28.13 126.03 28.95 126.03 29.77C126.03 30.58 126.16 31.41 126.4 32.23C126.66 33.05 127.03 33.78 127.53 34.42C128.02 35.05 128.66 35.58 129.41 35.98C130.16 36.38 131.08 36.59 132.13 36.59C133.18 36.59 134.09 36.38 134.84 35.99C135.6 35.58 136.23 35.05 136.72 34.42C137.22 33.77 137.6 33.04 137.85 32.23C138.1 31.41 138.22 30.58 138.22 29.77C138.22 28.95 138.1 28.13 137.85 27.33C137.6 26.53 137.22 25.8 136.72 25.16C136.23 24.53 135.6 24.01 134.84 23.62C134.09 23.23 133.18 23.04 132.13 23.04C131.07 23.04 130.16 23.23 129.41 23.62ZM16.56 26.9C16.57 26.9 16.58 26.91 16.59 26.91C16.59 26.91 16.6 26.92 16.6 26.92C16.59 26.91 16.58 26.91 16.56 26.9C16.56 26.9 16.55 26.89 16.53 26.88C16.55 26.89 16.56 26.9 16.56 26.9ZM16.45 26.83C16.47 26.85 16.5 26.86 16.52 26.87C16.52 26.87 16.45 26.83 16.45 26.83ZM16.39 26.8C16.39 26.8 16.39 26.8 16.4 26.8C16.53 26.88 16.53 26.88 16.39 26.8ZM16.13 26.65C16.16 26.67 16.22 26.71 16.29 26.74C16.29 26.74 16.31 26.75 16.34 26.77L16.24 26.72L16.24 26.72L16.12 26.65L16.11 26.65C16.12 26.65 16.12 26.65 16.13 26.65ZM16.11 26.65L16.11 26.64L16.1 26.64L16.11 26.65ZM17.62 4.41C10.36 4.95 4.56 11.2 4.12 18.97C4.12 18.97 4.12 18.97 4.12 18.97C1.65 18.97 0.27 18.97 0 18.97C0.45 8.77 8.09 0.56 17.62 0C17.62 0 17.62 0 17.62 0C17.62 2.64 17.62 4.11 17.62 4.41ZM20.33 0C29.85 0.56 37.5 8.77 37.94 18.97C37.94 18.97 37.94 18.97 37.94 18.97C35.47 18.97 34.1 18.97 33.83 18.97C33.39 11.2 27.58 4.95 20.33 4.41C20.33 4.41 20.33 4.41 20.33 4.41C20.33 2.06 20.33 0.59 20.33 0Z" id="dbTQdF0R1"></path></defs><g><g><use xlink:href="#dbTQdF0R1" opacity="0.5" fill="#ffffff" fill-opacity="1"></use><g><use xlink:href="#dbTQdF0R1" opacity="0.5" fill-opacity="0" stroke="#000000" stroke-width="1" stroke-opacity="0"></use></g></g></g></svg>